# xmcd
#
# Track frame offsets:
# 150
# 11970
# 27687
# 44227
# 64587
# 77165
# 89642
# 104940
# 120695
# 130842
# 141442
# 152387
# 168120
# 178030
#
# Disc length: 2597 seconds
#
# Revision: 0
# Processed by: cddbd v1.5.1PL2 Copyright (c) Steve Scherf et al.
# Submitted via: Axialis_AX_CDPlayer 2.6
#
DISCID=cd0a230e
DTITLE=Earl Scruggs - I Saw The Light (With Some Help From My Friends)
DYEAR=1900
DGENRE=
TTITLE0=Lonesome And A Long Way From Home
TTITLE1=Silver Wings
TTITLE2=It's A Picture From Life's Other Side
TTITLE3=Motherless Child Blues
TTITLE4=Some Of Shelley's Blues
TTITLE5=Never Ending Song of Love
TTITLE6=Rock Salt And Nails
TTITLE7=The Banks of The Ohio
TTITLE8=Ring Of Fire
TTITLE9=Propinquity
TTITLE10=Fireball Mail
TTITLE11=Tramp On The Street
TTITLE12=The Cure
TTITLE13=I Saw The Light
EXTD=
EXTT0=
EXTT1=
EXTT2=
EXTT3=
EXTT4=
EXTT5=
EXTT6=
EXTT7=
EXTT8=
EXTT9=
EXTT10=
EXTT11=
EXTT12=
EXTT13=
PLAYORDER=
